<?xml version="1.0" standalone="no"?>
<!DOCTYPE svg PUBLIC "-//W3C//DTD SVG 20010904//EN"
 "http://www.w3.org/TR/2001/REC-SVG-20010904/DTD/svg10.dtd">
<svg version="1.0" xmlns="http://www.w3.org/2000/svg"
 width="1365.000000pt" height="1365.000000pt" viewBox="0 0 1365.000000 1365.000000"
 preserveAspectRatio="xMidYMid meet">
<metadata>
Created by potrace 1.14, written by Peter Selinger 2001-2017
</metadata>
<g transform="translate(0.000000,1365.000000) scale(0.100000,-0.100000)"
fill="#000000" stroke="none">
<path d="M7383 12206 c-31 -23 -85 -113 -233 -391 -272 -511 -330 -614 -373
-654 -24 -22 -36 -24 -214 -32 -194 -9 -239 -6 -285 17 -40 21 -110 112 -363
479 -350 506 -349 505 -426 505 -34 0 -724 -227 -911 -300 -79 -30 -114 -50
-134 -73 l-27 -32 6 -145 c4 -80 22 -336 41 -570 l35 -425 -30 -50 c-25 -41
-57 -68 -176 -150 -177 -122 -236 -155 -277 -155 -38 0 -253 80 -581 217 -553
231 -539 227 -594 199 -39 -21 -82 -70 -327 -376 -315 -394 -364 -459 -364
-483 0 -30 48 -110 123 -209 333 -437 526 -701 546 -747 31 -72 27 -96 -49
-282 -86 -212 -135 -314 -165 -337 -33 -26 -125 -47 -500 -117 -687 -128 -679
-126 -702 -149 -30 -29 -48 -105 -78 -336 -26 -205 -65 -629 -65 -716 l0 -51
58 -26 c85 -38 134 -57 532 -202 516 -188 527 -192 549 -223 28 -40 89 -311
126 -556 13 -90 13 -102 -2 -133 -15 -32 -228 -243 -623 -615 -190 -179 -240
-236 -240 -275 0 -26 272 -570 375 -751 81 -142 117 -182 161 -182 34 0 264
48 731 154 133 30 275 60 316 67 69 12 77 11 119 -9 75 -37 427 -403 474 -494
12 -23 15 -46 11 -87 -4 -31 -60 -270 -126 -531 -133 -529 -141 -568 -118
-603 19 -29 149 -108 546 -331 215 -121 323 -176 344 -176 50 0 118 61 519
458 l377 374 78 -6 c100 -9 444 -78 548 -111 95 -29 123 -54 155 -140 12 -33
89 -260 172 -505 82 -245 156 -459 164 -476 18 -38 74 -70 139 -78 96 -12 598
24 838 60 125 19 148 33 171 102 9 26 58 247 110 492 120 569 130 606 173 647
53 51 509 223 590 223 69 0 74 -3 648 -464 143 -114 278 -217 299 -228 76 -39
71 -42 546 320 301 230 378 295 386 328 8 31 -43 181 -221 649 -148 391 -180
492 -171 537 12 59 295 436 349 465 46 25 103 21 637 -37 256 -27 480 -50 498
-50 48 0 98 27 121 64 11 17 76 186 144 376 69 190 146 400 171 468 25 68 46
132 46 143 0 49 -101 132 -726 594 -172 126 -229 177 -251 219 -28 54 -3 449
33 518 19 37 83 73 599 338 296 152 443 233 454 250 10 15 16 44 15 80 -1 72
-190 944 -221 1023 -31 76 -47 79 -693 122 -433 29 -536 40 -568 61 -33 22
-83 95 -145 213 -71 138 -90 196 -77 239 13 48 65 141 318 567 124 209 232
397 240 417 14 35 13 40 -12 92 -32 65 -118 159 -490 533 -171 173 -280 274
-296 278 -53 12 -122 -22 -662 -322 -254 -141 -399 -216 -425 -220 -24 -3 -60
3 -96 16 -64 22 -259 131 -295 164 -64 58 -75 129 -87 527 -10 353 -25 639
-36 691 -19 88 -7 83 -614 230 -446 108 -526 121 -562 95z m-391 -2226 c881
-59 1776 -577 2310 -1336 278 -395 478 -900 545 -1374 22 -159 25 -706 5 -870
-40 -318 -118 -593 -254 -895 -227 -505 -581 -941 -1028 -1267 -318 -231 -682
-404 -1076 -509 -129 -34 -370 -79 -425 -79 l-37 0 -21 90 c-31 129 -69 359
-82 497 -15 157 -6 634 15 763 38 231 119 434 237 590 78 104 244 270 348 348
237 179 419 254 741 307 85 15 262 53 392 87 146 37 247 58 262 54 35 -9 44
-46 56 -221 14 -218 19 -245 38 -245 51 0 252 193 338 322 75 113 98 178 98
278 0 94 -15 152 -71 265 -99 200 -362 485 -628 682 -165 122 -166 123 -192
182 -35 79 -117 201 -205 306 -226 269 -470 422 -815 511 -121 31 -153 35
-370 45 -268 13 -573 5 -702 -17 -211 -36 -489 -116 -662 -189 -374 -160 -753
-444 -1136 -854 -195 -208 -296 -334 -428 -531 -178 -267 -306 -512 -480 -918
-44 -100 -83 -181 -89 -179 -13 4 -32 60 -76 232 -60 235 -65 296 -65 780 l0
430 33 155 c59 278 117 460 224 703 231 525 638 1007 1128 1336 397 267 937
467 1400 520 108 12 493 13 672 1z m206 -2296 c31 -3 122 -24 202 -46 345 -95
363 -98 503 -108 169 -12 182 -17 135 -53 -42 -33 -201 -108 -288 -137 -78
-26 -124 -23 -252 20 -201 67 -498 252 -498 310 0 30 25 32 198 14z"/>
</g>
</svg>
